<svg width="42" height="66" viewBox="0 0 42 66" fill="none" xmlns="http://www.w3.org/2000/svg">
<path fill-rule="evenodd" clip-rule="evenodd" d="M18.1082 12.0633C19.6822 12.0633 20.9592 10.7873 20.9592 9.2123C20.9592 7.6373 19.6822 6.3613 18.1082 6.3613C16.5332 6.3613 15.2572 7.6373 15.2572 9.2123C15.2572 10.7873 16.5332 12.0633 18.1082 12.0633" fill="#4FD1C5"/>
<path fill-rule="evenodd" clip-rule="evenodd" d="M25.6876 6.583C27.5056 6.583 28.9796 5.109 28.9796 3.291C28.9796 1.473 27.5056 0 25.6876 0C23.8696 0 22.3956 1.473 22.3956 3.291C22.3956 5.109 23.8696 6.583 25.6876 6.583" fill="#4FD1C5"/>
<path fill-rule="evenodd" clip-rule="evenodd" d="M29.9634 58.7573H11.7714C9.73642 58.7573 8.53842 56.4733 9.69542 54.7993L19.0004 41.3323C20.0164 39.8613 22.1984 39.8843 23.1824 41.3763L32.0694 54.8433C33.1774 56.5213 31.9734 58.7573 29.9634 58.7573M41.0334 55.2953L28.1024 33.9373V22.0093H28.4164C30.2874 22.0093 31.8044 20.4913 31.8044 18.6203C31.8044 16.7493 30.2874 15.2323 28.4164 15.2323H13.3434C11.4724 15.2323 9.95542 16.7493 9.95542 18.6203C9.95542 20.4913 11.4724 22.0093 13.3434 22.0093H13.6574V33.9373L0.726421 55.2953C-1.53958 59.8453 1.77042 65.1903 6.85342 65.1903H34.9054C39.9894 65.1903 43.2984 59.8453 41.0334 55.2953" fill="#4FD1C5"/>
</svg>
